<svg width="31" height="31" viewBox="0 0 31 31" fill="none" xmlns="http://www.w3.org/2000/svg">
<path d="M6.59269 14.2147H21.0206L14.7173 7.91137C14.2135 7.40762 14.2135 6.58095 14.7173 6.0772C14.8368 5.95746 14.9787 5.86246 15.135 5.79764C15.2912 5.73283 15.4587 5.69946 15.6279 5.69946C15.7971 5.69946 15.9646 5.73283 16.1208 5.79764C16.2771 5.86246 16.419 5.95746 16.5385 6.0772C19.4629 9.00024 20.336 9.87987 25.699 15.4999C18.9268 22.5369 18.2435 23.2189 16.5385 24.9226C16.297 25.1641 15.9695 25.2998 15.6279 25.2998C15.2863 25.2998 14.9588 25.1641 14.7173 24.9226C14.4758 24.6811 14.3401 24.3535 14.3401 24.012C14.3401 23.6704 14.4758 23.3429 14.7173 23.1014L21.0206 16.798H6.59269C5.88228 16.798 5.30103 16.2168 5.30103 15.5064C5.30103 14.796 5.88228 14.2147 6.59269 14.2147Z" fill="black"/>
</svg>
